<svg width="241" height="273" viewBox="0 0 241 273" fill="none" xmlns="http://www.w3.org/2000/svg">
<path d="M130.872 189L154.555 177.566L154.964 189H130.872Z" fill="#112937" stroke="#112937" stroke-width="2"/>
<path d="M113.72 189L87.4923 177.505L87.0401 189H113.72Z" fill="#112937" stroke="#112937" stroke-width="2"/>
<path d="M86.5 175C117 193 128.075 191.758 155.5 175" stroke="#112937" stroke-width="2"/>
<path d="M168.895 145.5H177.5V158.5H166.722C167.802 155.498 168.345 152.253 168.619 149.709C168.767 148.336 168.837 147.161 168.87 146.328C168.884 145.994 168.891 145.715 168.895 145.5Z" fill="#CD3340" stroke="#C2333F"/>
<path d="M165.761 123.5H176.75C176.77 123.57 176.792 123.649 176.817 123.736C176.923 124.115 177.07 124.658 177.234 125.309C177.561 126.613 177.952 128.346 178.213 130.074C178.475 131.814 178.596 133.503 178.41 134.738C178.317 135.357 178.154 135.81 177.937 136.098C177.739 136.361 177.489 136.5 177.126 136.5H169.154C168.867 133.103 167.975 129.751 167.143 127.221C166.707 125.896 166.286 124.791 165.974 124.017C165.896 123.824 165.824 123.651 165.761 123.5Z" fill="#EF4240" stroke="#EB3F48"/>
<path d="M155.5 109.5L149.5 103H155C155 103 156 103 156 103.5V104.5L155.5 109.5Z" fill="#D4463A" stroke="#DE4A50"/>
<path d="M100.5 103.302L93.3693 110.878C93.2059 109.533 92.9907 107.83 92.7704 106.22C92.5445 104.569 92.3101 102.991 92.1188 102H100.5V103.302Z" fill="#112937" stroke="#112937"/>
<path d="M88.8182 101.5H100.182H100.875L101.182 101.825L101.5 102.162V103.215L92.2321 113.5H88.9926L87.5 112.314V102.162L88.1247 101.5H88.8182Z" fill="#BE3E53" stroke="#BE3E53"/>
<rect x="83" width="14" height="52" rx="7" fill="#112937"/>
<path d="M102.5 64.5C101.5 67.5 102.5 70 102.5 70H41L45.5 30L74.5 31.5V47C74.5 53.6274 79.8726 59 86.5 59H93C99.6274 59 105 53.6274 105 47V32.5H133L133.278 47.2264C133.401 53.7644 138.737 59 145.276 59H153C159.627 59 165 53.6274 165 47V31.5L195 33V70H131.5C131.5 70 123.893 62.5829 117 60.5C114.383 59.7092 110 60.5 110 60.5C110 60.5 103.5 61.5 102.5 64.5Z" fill="url(#paint0_linear_151_73)"/>
<rect x="141" width="14" height="52" rx="7" fill="#112937"/>
<rect x="105" y="17" width="28" height="16" fill="#112937"/>
<rect x="58" y="145" width="18" height="14" rx="4" fill="#112937"/>
<rect x="58" y="145" width="18" height="14" rx="4" fill="#112937"/>
<rect x="58" y="145" width="18" height="14" rx="4" fill="#112937"/>
<rect x="58" y="123" width="18" height="14" rx="4" fill="#112937"/>
<rect x="58" y="123" width="18" height="14" rx="4" fill="#112937"/>
<rect x="58" y="123" width="18" height="14" rx="4" fill="#0F2A39"/>
<rect x="58" y="101" width="18" height="14" rx="4" fill="#112937"/>
<rect x="58" y="101" width="18" height="14" rx="4" fill="#112937"/>
<rect x="58" y="101" width="18" height="14" rx="4" fill="#C02841"/>
<rect x="85" y="81" width="18" height="14" rx="4" fill="#112937"/>
<rect x="85" y="81" width="18" height="14" rx="4" fill="#112937"/>
<rect x="85" y="81" width="18" height="14" rx="4" fill="#F44B44"/>
<rect x="164" y="81" width="18" height="14" rx="4" fill="#112937"/>
<rect x="164" y="81" width="18" height="14" rx="4" fill="#112937"/>
<rect x="164" y="81" width="18" height="14" rx="4" fill="#FB5E45"/>
<rect x="164" y="101" width="18" height="14" rx="4" fill="#112937"/>
<rect x="164" y="101" width="18" height="14" rx="4" fill="#112937"/>
<rect x="164" y="101" width="18" height="14" rx="4" fill="#F03F41"/>
<rect x="85" y="101" width="9" height="14" rx="4" fill="#BE3E53"/>
<rect x="173" y="123" width="9" height="14" rx="4" fill="#F13D42"/>
<rect x="173" y="145" width="9" height="14" rx="4" fill="#C7353F"/>
<path d="M74.4301 25H63.0027C49.1958 25 38.003 36.1926 38.0027 49.9995L38.0005 156.999C38.0002 170.807 49.1932 182 63.0005 182H87" stroke="#112937" stroke-width="16"/>
<path d="M165.083 25H177.997C191.804 25 202.997 36.1926 202.997 49.9995L202.999 156.999C203 170.807 191.807 182 177.999 182H155" stroke="#112937" stroke-width="16"/>
<rect x="112" y="188" width="22" height="2" fill="#112937"/>
<path d="M105.364 115C113.843 106.87 116.418 92.4874 110.364 70C122.957 71.9668 130.861 88.5 133.861 98C136.861 107.5 141.861 127 122.361 143.5C113.015 151.409 112.168 157.206 111.861 161.5C111.529 166.164 112.284 169.144 115.361 173.5C114.476 163.214 127.105 153.649 134.361 148C141.617 142.351 143.66 131.618 144.361 114.5C173.715 152.58 143.349 187.935 105.364 174.5C82.7313 163.726 74.0384 137.864 105.364 115Z" fill="url(#paint1_linear_151_73)"/>
<path d="M39.8857 201.091H47.2663V223.761C47.2663 226.307 46.6584 228.534 45.4425 230.443C44.2379 232.352 42.5504 233.841 40.38 234.909C38.2095 235.966 35.6811 236.494 32.7947 236.494C29.897 236.494 27.3629 235.966 25.1925 234.909C23.022 233.841 21.3345 232.352 20.13 230.443C18.9254 228.534 18.3232 226.307 18.3232 223.761V201.091H25.7038V223.131C25.7038 224.46 25.9936 225.642 26.5732 226.676C27.1641 227.71 27.9936 228.523 29.0618 229.114C30.13 229.705 31.3743 230 32.7947 230C34.2266 230 35.4709 229.705 36.5277 229.114C37.5959 228.523 38.4197 227.71 38.9993 226.676C39.5902 225.642 39.8857 224.46 39.8857 223.131V201.091ZM60.4638 220.864V236H53.2024V209.818H60.1229V214.438H60.4297C61.0092 212.915 61.9808 211.71 63.3445 210.824C64.7081 209.926 66.3615 209.477 68.3047 209.477C70.1229 209.477 71.7081 209.875 73.0604 210.67C74.4126 211.466 75.4638 212.602 76.2138 214.08C76.9638 215.545 77.3388 217.295 77.3388 219.33V236H70.0774V220.625C70.0888 219.023 69.6797 217.773 68.8501 216.875C68.0206 215.966 66.8786 215.511 65.424 215.511C64.4467 215.511 63.5831 215.722 62.8331 216.142C62.0945 216.562 61.5149 217.176 61.0945 217.983C60.6854 218.778 60.4751 219.739 60.4638 220.864ZM83.0618 236V209.818H90.3232V236H83.0618ZM86.7095 206.443C85.63 206.443 84.7038 206.085 83.9311 205.369C83.1697 204.642 82.7891 203.773 82.7891 202.761C82.7891 201.761 83.1697 200.903 83.9311 200.188C84.7038 199.46 85.63 199.097 86.7095 199.097C87.7891 199.097 88.7095 199.46 89.4709 200.188C90.2436 200.903 90.63 201.761 90.63 202.761C90.63 203.773 90.2436 204.642 89.4709 205.369C88.7095 206.085 87.7891 206.443 86.7095 206.443ZM108.072 236.511C105.379 236.511 103.06 235.966 101.117 234.875C99.1854 233.773 97.6967 232.216 96.6513 230.205C95.6058 228.182 95.0831 225.79 95.0831 223.028C95.0831 220.335 95.6058 217.972 96.6513 215.938C97.6967 213.903 99.1683 212.318 101.066 211.182C102.975 210.045 105.214 209.477 107.782 209.477C109.509 209.477 111.117 209.756 112.606 210.312C114.106 210.858 115.413 211.682 116.526 212.784C117.651 213.886 118.526 215.273 119.151 216.943C119.776 218.602 120.089 220.545 120.089 222.773V224.767H97.9808V220.267H113.254C113.254 219.222 113.026 218.295 112.572 217.489C112.117 216.682 111.487 216.051 110.68 215.597C109.884 215.131 108.958 214.898 107.901 214.898C106.799 214.898 105.822 215.153 104.969 215.665C104.129 216.165 103.469 216.841 102.992 217.693C102.515 218.534 102.271 219.472 102.259 220.506V224.784C102.259 226.08 102.498 227.199 102.975 228.142C103.464 229.085 104.151 229.812 105.038 230.324C105.924 230.835 106.975 231.091 108.191 231.091C108.998 231.091 109.737 230.977 110.407 230.75C111.077 230.523 111.651 230.182 112.129 229.727C112.606 229.273 112.969 228.716 113.219 228.057L119.935 228.5C119.594 230.114 118.896 231.523 117.839 232.727C116.793 233.92 115.441 234.852 113.782 235.523C112.134 236.182 110.231 236.511 108.072 236.511ZM148.533 209.818L139.38 236H131.198L122.045 209.818H129.715L135.153 228.551H135.425L140.846 209.818H148.533ZM163.337 236.511C160.644 236.511 158.326 235.966 156.383 234.875C154.451 233.773 152.962 232.216 151.917 230.205C150.871 228.182 150.349 225.79 150.349 223.028C150.349 220.335 150.871 217.972 151.917 215.938C152.962 213.903 154.434 212.318 156.332 211.182C158.241 210.045 160.479 209.477 163.048 209.477C164.775 209.477 166.383 209.756 167.871 210.312C169.371 210.858 170.678 211.682 171.792 212.784C172.917 213.886 173.792 215.273 174.417 216.943C175.042 218.602 175.354 220.545 175.354 222.773V224.767H153.246V220.267H168.519C168.519 219.222 168.292 218.295 167.837 217.489C167.383 216.682 166.752 216.051 165.945 215.597C165.15 215.131 164.224 214.898 163.167 214.898C162.065 214.898 161.087 215.153 160.235 215.665C159.394 216.165 158.735 216.841 158.258 217.693C157.781 218.534 157.536 219.472 157.525 220.506V224.784C157.525 226.08 157.763 227.199 158.241 228.142C158.729 229.085 159.417 229.812 160.303 230.324C161.19 230.835 162.241 231.091 163.457 231.091C164.263 231.091 165.002 230.977 165.673 230.75C166.343 230.523 166.917 230.182 167.394 229.727C167.871 229.273 168.235 228.716 168.485 228.057L175.201 228.5C174.86 230.114 174.161 231.523 173.104 232.727C172.059 233.92 170.707 234.852 169.048 235.523C167.4 236.182 165.496 236.511 163.337 236.511ZM187.354 220.864V236H180.093V209.818H187.013V214.438H187.32C187.9 212.915 188.871 211.71 190.235 210.824C191.599 209.926 193.252 209.477 195.195 209.477C197.013 209.477 198.599 209.875 199.951 210.67C201.303 211.466 202.354 212.602 203.104 214.08C203.854 215.545 204.229 217.295 204.229 219.33V236H196.968V220.625C196.979 219.023 196.57 217.773 195.741 216.875C194.911 215.966 193.769 215.511 192.315 215.511C191.337 215.511 190.474 215.722 189.724 216.142C188.985 216.562 188.406 217.176 187.985 217.983C187.576 218.778 187.366 219.739 187.354 220.864ZM223.879 209.818V215.273H208.112V209.818H223.879ZM211.691 203.545H218.952V227.955C218.952 228.625 219.055 229.148 219.259 229.523C219.464 229.886 219.748 230.142 220.112 230.29C220.487 230.437 220.918 230.511 221.407 230.511C221.748 230.511 222.089 230.483 222.43 230.426C222.771 230.358 223.032 230.307 223.214 230.273L224.356 235.676C223.992 235.79 223.481 235.92 222.822 236.068C222.163 236.227 221.362 236.324 220.418 236.358C218.668 236.426 217.134 236.193 215.816 235.659C214.509 235.125 213.492 234.295 212.765 233.17C212.038 232.045 211.68 230.625 211.691 228.909V203.545Z" fill="#112937"/>
<path d="M60.5229 268V253.455H65.9775C67.0949 253.455 68.0324 253.663 68.79 254.08C69.5523 254.496 70.1276 255.069 70.5158 255.798C70.9088 256.523 71.1053 257.347 71.1053 258.27C71.1053 259.203 70.9088 260.031 70.5158 260.756C70.1228 261.48 69.5428 262.051 68.7758 262.467C68.0087 262.879 67.0641 263.085 65.942 263.085H62.3269V260.919H65.5869C66.2403 260.919 66.7753 260.805 67.192 260.578C67.6086 260.351 67.9164 260.038 68.1153 259.641C68.3189 259.243 68.4207 258.786 68.4207 258.27C68.4207 257.754 68.3189 257.299 68.1153 256.906C67.9164 256.513 67.6063 256.208 67.1849 255.99C66.7682 255.768 66.2308 255.656 65.5727 255.656H63.1579V268H60.5229ZM78.194 268V253.455H80.829V265.791H87.2352V268H78.194ZM96.7369 268H93.9244L99.0452 253.455H102.298L107.426 268H104.613L100.728 256.438H100.615L96.7369 268ZM96.8293 262.297H104.5V264.413H96.8293V262.297ZM126.095 253.455V268H123.751L116.897 258.092H116.777V268H114.142V253.455H116.5L123.346 263.369H123.474V253.455H126.095ZM145.719 253.455V268H143.375L136.522 258.092H136.401V268H133.766V253.455H136.124L142.97 263.369H143.098V253.455H145.719ZM153.39 268V253.455H162.85V255.663H156.025V259.612H162.36V261.821H156.025V265.791H162.907V268H153.39ZM170.339 268V253.455H175.793C176.911 253.455 177.848 253.649 178.606 254.037C179.368 254.425 179.943 254.97 180.331 255.67C180.724 256.366 180.921 257.179 180.921 258.107C180.921 259.039 180.722 259.849 180.324 260.536C179.931 261.217 179.351 261.745 178.584 262.119C177.817 262.489 176.875 262.673 175.758 262.673H171.873V260.486H175.402C176.056 260.486 176.591 260.396 177.008 260.216C177.424 260.031 177.732 259.764 177.931 259.413C178.134 259.058 178.236 258.623 178.236 258.107C178.236 257.59 178.134 257.15 177.931 256.786C177.727 256.416 177.417 256.137 177 255.947C176.584 255.753 176.046 255.656 175.388 255.656H172.974V268H170.339ZM177.853 261.409L181.454 268H178.513L174.976 261.409H177.853Z" fill="#112937"/>
<defs>
<linearGradient id="paint0_linear_151_73" x1="118" y1="34" x2="118" y2="70" gradientUnits="userSpaceOnUse">
<stop stop-color="#FE6941"/>
<stop offset="1" stop-color="#F63C46"/>
</linearGradient>
<linearGradient id="paint1_linear_151_73" x1="120.558" y1="70" x2="120.558" y2="177.409" gradientUnits="userSpaceOnUse">
<stop stop-color="#FF873C"/>
<stop offset="0.5" stop-color="#FB4946"/>
<stop offset="1" stop-color="#AE2748"/>
</linearGradient>
</defs>
</svg>
