<svg width="73" height="77" viewBox="0 0 73 77" fill="none" xmlns="http://www.w3.org/2000/svg">
<g clip-path="url(#clip0_1_16)">
<path d="M40.6832 76.2264L50.2349 71.6149L50.3998 76.2264H40.6832Z" fill="#181919" stroke="#181919" stroke-width="2"/>
<path d="M33.7656 76.2265L23.1875 71.5904L23.0051 76.2265H33.7656Z" fill="#181919" stroke="#181919" stroke-width="2"/>
<path d="M22.7873 70.5801C35.0884 77.8397 39.555 77.3388 50.616 70.5801" stroke="#181919" stroke-width="2"/>
<path d="M56.0184 58.6823H59.4889V63.9254H55.142C55.5775 62.7147 55.7965 61.4059 55.9071 60.3799C55.9667 59.8261 55.995 59.3522 56.0083 59.0163C56.0139 58.8816 56.0168 58.769 56.0184 58.6823Z" fill="#CD3340" stroke="#C2333F"/>
<path d="M54.8403 50.0179C54.8089 49.94 54.7798 49.8703 54.7544 49.8094H59.1865C59.1945 49.8376 59.2034 49.8695 59.2135 49.9045C59.2562 50.0574 59.3155 50.2764 59.3817 50.539C59.5135 51.0649 59.6712 51.7638 59.7765 52.4608C59.8822 53.1625 59.931 53.8437 59.856 54.3418C59.8184 54.5915 59.7527 54.7742 59.6652 54.8903C59.5853 54.9964 59.4845 55.0525 59.3381 55.0525H56.1229C56.0071 53.6824 55.6474 52.3305 55.3118 51.3101C55.136 50.7757 54.9662 50.33 54.8403 50.0179Z" fill="#EF4240" stroke="#EB3F48"/>
<path d="M50.616 44.163L48.1961 41.5414H50.4144C50.4144 41.5414 50.8177 41.5414 50.8177 41.7431V42.1464L50.616 44.163Z" fill="#D4463A" stroke="#DE4A50"/>
<path d="M25.3162 42.8401C25.2251 42.1742 25.1306 41.5378 25.0534 41.1381H28.4337V41.6632L25.5578 44.7187C25.4919 44.1763 25.4051 43.4894 25.3162 42.8401Z" fill="#181919" stroke="#181919"/>
<path d="M23.7222 40.9364H28.3054H28.5851L28.7087 41.0675L28.837 41.2034V41.6281L25.0991 45.7762H23.7926L23.1906 45.2979V41.2034L23.4425 40.9364H23.7222Z" fill="#BE3E53" stroke="#BE3E53"/>
<path d="M27.0221 2.82317C27.0221 1.26396 25.7581 -3.05176e-05 24.1989 -3.05176e-05C22.6397 -3.05176e-05 21.3757 1.26396 21.3757 2.82317V18.1491C21.3757 19.7084 22.6397 20.9723 24.1989 20.9723C25.7581 20.9723 27.0221 19.7084 27.0221 18.1491V2.82317Z" fill="#1C1E1E"/>
<path d="M29.2403 26.0138C28.837 27.2237 29.2403 28.232 29.2403 28.232H4.43646L6.25138 12.0994L17.9475 12.7044V18.9558C17.9475 21.6287 20.1144 23.7956 22.7873 23.7956H25.4088C28.0818 23.7956 30.2486 21.6287 30.2486 18.9558V13.1077H41.5414L41.6535 19.0471C41.7031 21.684 43.8552 23.7956 46.4925 23.7956H49.6077C52.2805 23.7956 54.4475 21.6287 54.4475 18.9558V12.7044L66.5469 13.3094V28.232H40.9364C40.9364 28.232 37.8683 25.2406 35.0884 24.4005C34.033 24.0816 32.2652 24.4005 32.2652 24.4005C32.2652 24.4005 29.6436 24.8039 29.2403 26.0138Z" fill="url(#paint0_linear_1_16)"/>
<path d="M50.4144 2.82317C50.4144 1.26396 49.1504 -3.05176e-05 47.5912 -3.05176e-05C46.032 -3.05176e-05 44.768 1.26396 44.768 2.82317V18.1491C44.768 19.7084 46.032 20.9723 47.5912 20.9723C49.1504 20.9723 50.4144 19.7084 50.4144 18.1491V2.82317Z" fill="#191919"/>
<path d="M41.5414 6.85632H30.2486V13.3094H41.5414V6.85632Z" fill="#181919"/>
<path d="M16.9392 58.4807H12.9061C12.0151 58.4807 11.2928 59.2029 11.2928 60.0939V62.5138C11.2928 63.4048 12.0151 64.1271 12.9061 64.1271H16.9392C17.8302 64.1271 18.5525 63.4048 18.5525 62.5138V60.0939C18.5525 59.2029 17.8302 58.4807 16.9392 58.4807Z" fill="#181919"/>
<path d="M16.9392 58.4807H12.9061C12.0151 58.4807 11.2928 59.2029 11.2928 60.0939V62.5138C11.2928 63.4048 12.0151 64.1271 12.9061 64.1271H16.9392C17.8302 64.1271 18.5525 63.4048 18.5525 62.5138V60.0939C18.5525 59.2029 17.8302 58.4807 16.9392 58.4807Z" fill="#181919"/>
<path d="M16.9392 58.4807H12.9061C12.0151 58.4807 11.2928 59.2029 11.2928 60.0939V62.5138C11.2928 63.4048 12.0151 64.1271 12.9061 64.1271H16.9392C17.8302 64.1271 18.5525 63.4048 18.5525 62.5138V60.0939C18.5525 59.2029 17.8302 58.4807 16.9392 58.4807Z" fill="#181919"/>
<path d="M16.9392 49.6077H12.9061C12.0151 49.6077 11.2928 50.33 11.2928 51.221V53.6408C11.2928 54.5318 12.0151 55.2541 12.9061 55.2541H16.9392C17.8302 55.2541 18.5525 54.5318 18.5525 53.6408V51.221C18.5525 50.33 17.8302 49.6077 16.9392 49.6077Z" fill="#181919"/>
<path d="M16.9392 49.6077H12.9061C12.0151 49.6077 11.2928 50.33 11.2928 51.221V53.6408C11.2928 54.5318 12.0151 55.2541 12.9061 55.2541H16.9392C17.8302 55.2541 18.5525 54.5318 18.5525 53.6408V51.221C18.5525 50.33 17.8302 49.6077 16.9392 49.6077Z" fill="#181919"/>
<path d="M16.9392 49.6077H12.9061C12.0151 49.6077 11.2928 50.33 11.2928 51.221V53.6408C11.2928 54.5318 12.0151 55.2541 12.9061 55.2541H16.9392C17.8302 55.2541 18.5525 54.5318 18.5525 53.6408V51.221C18.5525 50.33 17.8302 49.6077 16.9392 49.6077Z" fill="#323334"/>
<path d="M16.9392 40.7348H12.9061C12.0151 40.7348 11.2928 41.4571 11.2928 42.348V44.7679C11.2928 45.6589 12.0151 46.3812 12.9061 46.3812H16.9392C17.8302 46.3812 18.5525 45.6589 18.5525 44.7679V42.348C18.5525 41.4571 17.8302 40.7348 16.9392 40.7348Z" fill="#181919"/>
<path d="M16.9392 40.7348H12.9061C12.0151 40.7348 11.2928 41.4571 11.2928 42.348V44.7679C11.2928 45.6589 12.0151 46.3812 12.9061 46.3812H16.9392C17.8302 46.3812 18.5525 45.6589 18.5525 44.7679V42.348C18.5525 41.4571 17.8302 40.7348 16.9392 40.7348Z" fill="#181919"/>
<path d="M16.9392 40.7348H12.9061C12.0151 40.7348 11.2928 41.4571 11.2928 42.348V44.7679C11.2928 45.6589 12.0151 46.3812 12.9061 46.3812H16.9392C17.8302 46.3812 18.5525 45.6589 18.5525 44.7679V42.348C18.5525 41.4571 17.8302 40.7348 16.9392 40.7348Z" fill="#C02841"/>
<path d="M27.8287 32.6685H23.7956C22.9046 32.6685 22.1823 33.3908 22.1823 34.2817V36.7016C22.1823 37.5926 22.9046 38.3149 23.7956 38.3149H27.8287C28.7197 38.3149 29.442 37.5926 29.442 36.7016V34.2817C29.442 33.3908 28.7197 32.6685 27.8287 32.6685Z" fill="#181919"/>
<path d="M27.8287 32.6685H23.7956C22.9046 32.6685 22.1823 33.3908 22.1823 34.2817V36.7016C22.1823 37.5926 22.9046 38.3149 23.7956 38.3149H27.8287C28.7197 38.3149 29.442 37.5926 29.442 36.7016V34.2817C29.442 33.3908 28.7197 32.6685 27.8287 32.6685Z" fill="#181919"/>
<path d="M27.8287 32.6685H23.7956C22.9046 32.6685 22.1823 33.3908 22.1823 34.2817V36.7016C22.1823 37.5926 22.9046 38.3149 23.7956 38.3149H27.8287C28.7197 38.3149 29.442 37.5926 29.442 36.7016V34.2817C29.442 33.3908 28.7197 32.6685 27.8287 32.6685Z" fill="#F44B44"/>
<path d="M59.6906 32.6685H55.6575C54.7665 32.6685 54.0442 33.3908 54.0442 34.2817V36.7016C54.0442 37.5926 54.7665 38.3149 55.6575 38.3149H59.6906C60.5816 38.3149 61.3039 37.5926 61.3039 36.7016V34.2817C61.3039 33.3908 60.5816 32.6685 59.6906 32.6685Z" fill="#181919"/>
<path d="M59.6906 32.6685H55.6575C54.7665 32.6685 54.0442 33.3908 54.0442 34.2817V36.7016C54.0442 37.5926 54.7665 38.3149 55.6575 38.3149H59.6906C60.5816 38.3149 61.3039 37.5926 61.3039 36.7016V34.2817C61.3039 33.3908 60.5816 32.6685 59.6906 32.6685Z" fill="#181919"/>
<path d="M59.6906 32.6685H55.6575C54.7665 32.6685 54.0442 33.3908 54.0442 34.2817V36.7016C54.0442 37.5926 54.7665 38.3149 55.6575 38.3149H59.6906C60.5816 38.3149 61.3039 37.5926 61.3039 36.7016V34.2817C61.3039 33.3908 60.5816 32.6685 59.6906 32.6685Z" fill="#FB5E45"/>
<path d="M59.6906 40.7348H55.6575C54.7665 40.7348 54.0442 41.4571 54.0442 42.348V44.7679C54.0442 45.6589 54.7665 46.3812 55.6575 46.3812H59.6906C60.5816 46.3812 61.3039 45.6589 61.3039 44.7679V42.348C61.3039 41.4571 60.5816 40.7348 59.6906 40.7348Z" fill="#181919"/>
<path d="M59.6906 40.7348H55.6575C54.7665 40.7348 54.0442 41.4571 54.0442 42.348V44.7679C54.0442 45.6589 54.7665 46.3812 55.6575 46.3812H59.6906C60.5816 46.3812 61.3039 45.6589 61.3039 44.7679V42.348C61.3039 41.4571 60.5816 40.7348 59.6906 40.7348Z" fill="#181919"/>
<path d="M59.6906 40.7348H55.6575C54.7665 40.7348 54.0442 41.4571 54.0442 42.348V44.7679C54.0442 45.6589 54.7665 46.3812 55.6575 46.3812H59.6906C60.5816 46.3812 61.3039 45.6589 61.3039 44.7679V42.348C61.3039 41.4571 60.5816 40.7348 59.6906 40.7348Z" fill="#F03F41"/>
<path d="M24.1989 40.7348H23.7956C22.9046 40.7348 22.1823 41.4571 22.1823 42.348V44.7679C22.1823 45.6589 22.9046 46.3812 23.7956 46.3812H24.1989C25.0899 46.3812 25.8122 45.6589 25.8122 44.7679V42.348C25.8122 41.4571 25.0899 40.7348 24.1989 40.7348Z" fill="#BE3E53"/>
<path d="M59.6907 49.6077H59.2874C58.3964 49.6077 57.6741 50.33 57.6741 51.221V53.6408C57.6741 54.5318 58.3964 55.2541 59.2874 55.2541H59.6907C60.5817 55.2541 61.3039 54.5318 61.3039 53.6408V51.221C61.3039 50.33 60.5817 49.6077 59.6907 49.6077Z" fill="#F13D42"/>
<path d="M59.6907 58.4807H59.2874C58.3964 58.4807 57.6741 59.2029 57.6741 60.0939V62.5138C57.6741 63.4048 58.3964 64.1271 59.2874 64.1271H59.6907C60.5817 64.1271 61.3039 63.4048 61.3039 62.5138V60.0939C61.3039 59.2029 60.5817 58.4807 59.6907 58.4807Z" fill="#C7353F"/>
<path d="M17.9193 10.0829H13.3105C7.74196 10.0829 3.22773 14.597 3.22761 20.1655L3.22673 63.32C3.22662 68.889 7.74091 73.4033 13.3096 73.4033H22.9889" stroke="#181A19" stroke-width="7"/>
<path d="M54.4809 10.0829H59.6893C65.2579 10.0829 69.7722 14.597 69.7722 20.1655L69.773 63.32C69.7734 68.889 65.2591 73.4033 59.6902 73.4033H50.4143" stroke="#181919" stroke-width="7"/>
<path d="M41.9448 75.8232H33.0718V76.6298H41.9448V75.8232Z" fill="#181919"/>
<path d="M30.3954 46.3812C33.8151 43.1023 34.8537 37.3015 32.4119 28.232C37.4909 29.0253 40.6787 35.6934 41.8887 39.5248C43.0986 43.3563 45.1152 51.221 37.2508 57.8757C33.481 61.0655 33.1395 63.4035 33.0159 65.1354C32.8817 67.0164 33.1865 68.2183 34.4275 69.9751C34.0703 65.8266 39.1641 61.9689 42.0903 59.6906C45.0168 57.4123 45.8407 53.0835 46.1235 46.1795C57.9624 61.5378 45.7153 75.797 30.3954 70.3785C21.2673 66.0331 17.7613 55.6026 30.3954 46.3812Z" fill="url(#paint1_linear_1_16)"/>
<path d="M56.0184 58.6823H59.4889V63.9254H55.142C55.5775 62.7147 55.7965 61.4059 55.9071 60.3799C55.9667 59.8261 55.995 59.3522 56.0083 59.0163C56.0139 58.8816 56.0168 58.7691 56.0184 58.6823Z" fill="#CD3340" stroke="#C2333F"/>
<path d="M54.8403 50.0179C54.8089 49.94 54.7798 49.8703 54.7544 49.8094H59.1865C59.1945 49.8376 59.2034 49.8695 59.2135 49.9045C59.2562 50.0574 59.3155 50.2764 59.3817 50.539C59.5135 51.0649 59.6712 51.7638 59.7765 52.4608C59.8822 53.1625 59.931 53.8437 59.856 54.3418C59.8184 54.5915 59.7527 54.7742 59.6652 54.8903C59.5853 54.9964 59.4845 55.0525 59.3381 55.0525H56.1229C56.0071 53.6824 55.6474 52.3305 55.3118 51.3101C55.136 50.7757 54.9662 50.33 54.8403 50.0179Z" fill="#EF4240" stroke="#EB3F48"/>
<path d="M50.616 44.163L48.1961 41.5414H50.4144C50.4144 41.5414 50.8177 41.5414 50.8177 41.7431V42.1464L50.616 44.163Z" fill="#D4463A" stroke="#DE4A50"/>
<path d="M25.3162 42.8401C25.2251 42.1742 25.1306 41.5378 25.0534 41.1381H28.4337V41.6632L25.5578 44.7187C25.4919 44.1763 25.4051 43.4894 25.3162 42.8401Z" fill="#181919" stroke="#181919"/>
<path d="M23.7222 40.9364H28.3054H28.5851L28.7087 41.0675L28.837 41.2034V41.6281L25.0991 45.7762H23.7926L23.1906 45.2979V41.2034L23.4425 40.9364H23.7222Z" fill="#BE3E53" stroke="#BE3E53"/>
<path d="M27.0221 2.82317C27.0221 1.26396 25.7581 -3.05176e-05 24.1989 -3.05176e-05C22.6397 -3.05176e-05 21.3757 1.26396 21.3757 2.82317V18.1491C21.3757 19.7084 22.6397 20.9723 24.1989 20.9723C25.7581 20.9723 27.0221 19.7084 27.0221 18.1491V2.82317Z" fill="#1C1E1E"/>
<path d="M29.2403 26.0138C28.837 27.2237 29.2403 28.232 29.2403 28.232H4.43646L6.25138 12.0994L17.9475 12.7044V18.9558C17.9475 21.6287 20.1144 23.7955 22.7873 23.7955H25.4088C28.0818 23.7955 30.2486 21.6287 30.2486 18.9558V13.1077H41.5414L41.6535 19.0471C41.7031 21.6839 43.8552 23.7955 46.4925 23.7955H49.6077C52.2805 23.7955 54.4475 21.6287 54.4475 18.9558V12.7044L66.5469 13.3093V28.232H40.9364C40.9364 28.232 37.8683 25.2406 35.0884 24.4005C34.033 24.0816 32.2652 24.4005 32.2652 24.4005C32.2652 24.4005 29.6436 24.8038 29.2403 26.0138Z" fill="url(#paint2_linear_1_16)"/>
<path d="M50.4144 2.82317C50.4144 1.26396 49.1504 -3.05176e-05 47.5912 -3.05176e-05C46.032 -3.05176e-05 44.768 1.26396 44.768 2.82317V18.1491C44.768 19.7084 46.032 20.9723 47.5912 20.9723C49.1504 20.9723 50.4144 19.7084 50.4144 18.1491V2.82317Z" fill="#191919"/>
<path d="M41.5414 6.85635H30.2486V13.3094H41.5414V6.85635Z" fill="#181919"/>
<path d="M16.9392 58.4806H12.9061C12.0151 58.4806 11.2928 59.2029 11.2928 60.0939V62.5138C11.2928 63.4047 12.0151 64.127 12.9061 64.127H16.9392C17.8302 64.127 18.5525 63.4047 18.5525 62.5138V60.0939C18.5525 59.2029 17.8302 58.4806 16.9392 58.4806Z" fill="#181919"/>
<path d="M16.9392 58.4806H12.9061C12.0151 58.4806 11.2928 59.2029 11.2928 60.0939V62.5138C11.2928 63.4047 12.0151 64.127 12.9061 64.127H16.9392C17.8302 64.127 18.5525 63.4047 18.5525 62.5138V60.0939C18.5525 59.2029 17.8302 58.4806 16.9392 58.4806Z" fill="#181919"/>
<path d="M16.9392 58.4806H12.9061C12.0151 58.4806 11.2928 59.2029 11.2928 60.0939V62.5138C11.2928 63.4047 12.0151 64.127 12.9061 64.127H16.9392C17.8302 64.127 18.5525 63.4047 18.5525 62.5138V60.0939C18.5525 59.2029 17.8302 58.4806 16.9392 58.4806Z" fill="#181919"/>
<path d="M16.9392 49.6077H12.9061C12.0151 49.6077 11.2928 50.33 11.2928 51.221V53.6408C11.2928 54.5318 12.0151 55.2541 12.9061 55.2541H16.9392C17.8302 55.2541 18.5525 54.5318 18.5525 53.6408V51.221C18.5525 50.33 17.8302 49.6077 16.9392 49.6077Z" fill="#181919"/>
<path d="M16.9392 49.6077H12.9061C12.0151 49.6077 11.2928 50.33 11.2928 51.221V53.6408C11.2928 54.5318 12.0151 55.2541 12.9061 55.2541H16.9392C17.8302 55.2541 18.5525 54.5318 18.5525 53.6408V51.221C18.5525 50.33 17.8302 49.6077 16.9392 49.6077Z" fill="#181919"/>
<path d="M16.9392 49.6077H12.9061C12.0151 49.6077 11.2928 50.33 11.2928 51.221V53.6408C11.2928 54.5318 12.0151 55.2541 12.9061 55.2541H16.9392C17.8302 55.2541 18.5525 54.5318 18.5525 53.6408V51.221C18.5525 50.33 17.8302 49.6077 16.9392 49.6077Z" fill="#323334"/>
<path d="M16.9392 40.7348H12.9061C12.0151 40.7348 11.2928 41.4571 11.2928 42.348V44.7679C11.2928 45.6589 12.0151 46.3812 12.9061 46.3812H16.9392C17.8302 46.3812 18.5525 45.6589 18.5525 44.7679V42.348C18.5525 41.4571 17.8302 40.7348 16.9392 40.7348Z" fill="#181919"/>
<path d="M16.9392 40.7348H12.9061C12.0151 40.7348 11.2928 41.4571 11.2928 42.348V44.7679C11.2928 45.6589 12.0151 46.3812 12.9061 46.3812H16.9392C17.8302 46.3812 18.5525 45.6589 18.5525 44.7679V42.348C18.5525 41.4571 17.8302 40.7348 16.9392 40.7348Z" fill="#181919"/>
<path d="M16.9392 40.7348H12.9061C12.0151 40.7348 11.2928 41.4571 11.2928 42.348V44.7679C11.2928 45.6589 12.0151 46.3812 12.9061 46.3812H16.9392C17.8302 46.3812 18.5525 45.6589 18.5525 44.7679V42.348C18.5525 41.4571 17.8302 40.7348 16.9392 40.7348Z" fill="#C02841"/>
<path d="M27.8287 32.6685H23.7956C22.9046 32.6685 22.1823 33.3908 22.1823 34.2817V36.7016C22.1823 37.5926 22.9046 38.3149 23.7956 38.3149H27.8287C28.7197 38.3149 29.442 37.5926 29.442 36.7016V34.2817C29.442 33.3908 28.7197 32.6685 27.8287 32.6685Z" fill="#181919"/>
<path d="M27.8287 32.6685H23.7956C22.9046 32.6685 22.1823 33.3908 22.1823 34.2817V36.7016C22.1823 37.5926 22.9046 38.3149 23.7956 38.3149H27.8287C28.7197 38.3149 29.442 37.5926 29.442 36.7016V34.2817C29.442 33.3908 28.7197 32.6685 27.8287 32.6685Z" fill="#181919"/>
<path d="M27.8287 32.6685H23.7956C22.9046 32.6685 22.1823 33.3908 22.1823 34.2817V36.7016C22.1823 37.5926 22.9046 38.3149 23.7956 38.3149H27.8287C28.7197 38.3149 29.442 37.5926 29.442 36.7016V34.2817C29.442 33.3908 28.7197 32.6685 27.8287 32.6685Z" fill="#F44B44"/>
<path d="M59.6906 32.6685H55.6575C54.7665 32.6685 54.0442 33.3908 54.0442 34.2817V36.7016C54.0442 37.5926 54.7665 38.3149 55.6575 38.3149H59.6906C60.5816 38.3149 61.3039 37.5926 61.3039 36.7016V34.2817C61.3039 33.3908 60.5816 32.6685 59.6906 32.6685Z" fill="#181919"/>
<path d="M59.6906 32.6685H55.6575C54.7665 32.6685 54.0442 33.3908 54.0442 34.2817V36.7016C54.0442 37.5926 54.7665 38.3149 55.6575 38.3149H59.6906C60.5816 38.3149 61.3039 37.5926 61.3039 36.7016V34.2817C61.3039 33.3908 60.5816 32.6685 59.6906 32.6685Z" fill="#181919"/>
<path d="M59.6906 32.6685H55.6575C54.7665 32.6685 54.0442 33.3908 54.0442 34.2817V36.7016C54.0442 37.5926 54.7665 38.3149 55.6575 38.3149H59.6906C60.5816 38.3149 61.3039 37.5926 61.3039 36.7016V34.2817C61.3039 33.3908 60.5816 32.6685 59.6906 32.6685Z" fill="#FB5E45"/>
<path d="M59.6906 40.7348H55.6575C54.7665 40.7348 54.0442 41.4571 54.0442 42.348V44.7679C54.0442 45.6589 54.7665 46.3812 55.6575 46.3812H59.6906C60.5816 46.3812 61.3039 45.6589 61.3039 44.7679V42.348C61.3039 41.4571 60.5816 40.7348 59.6906 40.7348Z" fill="#181919"/>
<path d="M59.6906 40.7348H55.6575C54.7665 40.7348 54.0442 41.4571 54.0442 42.348V44.7679C54.0442 45.6589 54.7665 46.3812 55.6575 46.3812H59.6906C60.5816 46.3812 61.3039 45.6589 61.3039 44.7679V42.348C61.3039 41.4571 60.5816 40.7348 59.6906 40.7348Z" fill="#181919"/>
<path d="M59.6906 40.7348H55.6575C54.7665 40.7348 54.0442 41.4571 54.0442 42.348V44.7679C54.0442 45.6589 54.7665 46.3812 55.6575 46.3812H59.6906C60.5816 46.3812 61.3039 45.6589 61.3039 44.7679V42.348C61.3039 41.4571 60.5816 40.7348 59.6906 40.7348Z" fill="#F03F41"/>
<path d="M24.1989 40.7348H23.7956C22.9046 40.7348 22.1823 41.4571 22.1823 42.348V44.7679C22.1823 45.6589 22.9046 46.3812 23.7956 46.3812H24.1989C25.0899 46.3812 25.8122 45.6589 25.8122 44.7679V42.348C25.8122 41.4571 25.0899 40.7348 24.1989 40.7348Z" fill="#BE3E53"/>
<path d="M59.6907 49.6077H59.2874C58.3964 49.6077 57.6741 50.33 57.6741 51.221V53.6408C57.6741 54.5318 58.3964 55.2541 59.2874 55.2541H59.6907C60.5817 55.2541 61.3039 54.5318 61.3039 53.6408V51.221C61.3039 50.33 60.5817 49.6077 59.6907 49.6077Z" fill="#F13D42"/>
<path d="M59.6907 58.4806H59.2874C58.3964 58.4806 57.6741 59.2029 57.6741 60.0939V62.5138C57.6741 63.4047 58.3964 64.127 59.2874 64.127H59.6907C60.5817 64.127 61.3039 63.4047 61.3039 62.5138V60.0939C61.3039 59.2029 60.5817 58.4806 59.6907 58.4806Z" fill="#C7353F"/>
<path d="M17.9193 10.0829H13.3105C7.74196 10.0829 3.22773 14.597 3.22761 20.1655L3.22673 63.32C3.22662 68.889 7.74091 73.4033 13.3096 73.4033H22.9889" stroke="#181A19" stroke-width="7"/>
<path d="M54.4809 10.0829H59.6893C65.2579 10.0829 69.7722 14.597 69.7722 20.1655L69.773 63.32C69.7734 68.889 65.2591 73.4033 59.6902 73.4033H50.4143" stroke="#181919" stroke-width="7"/>
<path d="M30.3954 46.3812C33.8151 43.1023 34.8537 37.3015 32.4119 28.232C37.4909 29.0253 40.6787 35.6934 41.8887 39.5248C43.0986 43.3563 45.1152 51.221 37.2508 57.8757C33.481 61.0655 33.1395 63.4035 33.0159 65.1354C32.8817 67.0164 33.1865 68.2183 34.4275 69.9751C34.0703 65.8266 39.1641 61.9689 42.0903 59.6906C45.0168 57.4123 45.8407 53.0835 46.1235 46.1795C57.9624 61.5378 45.7153 75.797 30.3954 70.3785C21.2673 66.0331 17.7613 55.6026 30.3954 46.3812Z" fill="url(#paint3_linear_1_16)"/>
</g>
<defs>
<linearGradient id="paint0_linear_1_16" x1="35.4917" y1="13.7127" x2="35.4917" y2="28.232" gradientUnits="userSpaceOnUse">
<stop stop-color="#FE6941"/>
<stop offset="1" stop-color="#F63C46"/>
</linearGradient>
<linearGradient id="paint1_linear_1_16" x1="36.5234" y1="28.232" x2="36.5234" y2="71.5517" gradientUnits="userSpaceOnUse">
<stop stop-color="#FF873C"/>
<stop offset="0.5" stop-color="#FB4946"/>
<stop offset="1" stop-color="#AE2748"/>
</linearGradient>
<linearGradient id="paint2_linear_1_16" x1="35.4917" y1="13.7127" x2="35.4917" y2="28.232" gradientUnits="userSpaceOnUse">
<stop stop-color="#FE6941"/>
<stop offset="1" stop-color="#F63C46"/>
</linearGradient>
<linearGradient id="paint3_linear_1_16" x1="36.5234" y1="28.232" x2="36.5234" y2="71.5517" gradientUnits="userSpaceOnUse">
<stop stop-color="#FF873C"/>
<stop offset="0.5" stop-color="#FB4946"/>
<stop offset="1" stop-color="#AE2748"/>
</linearGradient>
<clipPath id="clip0_1_16">
<rect width="73" height="76.6299" fill="white"/>
</clipPath>
</defs>
</svg>
