<svg width="29" height="44" viewBox="0 0 29 44" fill="none" xmlns="http://www.w3.org/2000/svg">
<path d="M8.30407 18.3503C11.7617 15.0351 12.8118 9.17001 10.343 0C15.4783 0.802033 18.7016 7.54401 19.9249 11.418C21.1483 15.2919 23.1872 23.2437 15.2354 29.9721C11.4239 33.1972 11.0786 35.5613 10.9537 37.3122C10.8179 39.2142 11.1262 40.4293 12.3809 42.2057C12.0197 38.0111 17.1699 34.1107 20.1288 31.8072C23.0877 29.5036 23.9207 25.1267 24.2066 18.1464C36.1765 33.675 23.7939 48.0922 8.30407 42.6134C-0.925125 38.2198 -4.46995 27.6738 8.30407 18.3503Z" fill="url(#paint0_linear_176_74)"/>
<defs>
<linearGradient id="paint0_linear_176_74" x1="14.5" y1="0" x2="14.5" y2="43.7995" gradientUnits="userSpaceOnUse">
<stop stop-color="#FF873C"/>
<stop offset="0.5" stop-color="#FB4946"/>
<stop offset="1" stop-color="#AE2748"/>
</linearGradient>
</defs>
</svg>
