<svg width="104" height="20" viewBox="0 0 104 20" fill="none" xmlns="http://www.w3.org/2000/svg">
<path d="M11.1928 1.54545H14.8832V12.8807C14.8832 14.1534 14.5792 15.267 13.9712 16.2216C13.369 17.1761 12.5252 17.9205 11.44 18.4545C10.3548 18.983 9.09055 19.2472 7.64737 19.2472C6.19851 19.2472 4.93146 18.983 3.84624 18.4545C2.76101 17.9205 1.91726 17.1761 1.31499 16.2216C0.712713 15.267 0.411577 14.1534 0.411577 12.8807V1.54545H4.10192V12.5653C4.10192 13.2301 4.2468 13.821 4.53658 14.3381C4.83203 14.8551 5.2468 15.2614 5.78089 15.5568C6.31499 15.8523 6.93714 16 7.64737 16C8.36328 16 8.98544 15.8523 9.51385 15.5568C10.0479 15.2614 10.4599 14.8551 10.7496 14.3381C11.0451 13.821 11.1928 13.2301 11.1928 12.5653V1.54545ZM21.4819 11.4318V19H17.8512V5.90909H21.3114V8.21875H21.4648C21.7546 7.45739 22.2404 6.85511 22.9222 6.41193C23.604 5.96307 24.4308 5.73864 25.4023 5.73864C26.3114 5.73864 27.104 5.9375 27.7802 6.33523C28.4563 6.73295 28.9819 7.30114 29.3569 8.03977C29.7319 8.77273 29.9194 9.64773 29.9194 10.6648V19H26.2887V11.3125C26.2944 10.5114 26.0898 9.88636 25.6751 9.4375C25.2603 8.98295 24.6893 8.75568 23.962 8.75568C23.4734 8.75568 23.0415 8.8608 22.6665 9.07102C22.2972 9.28125 22.0075 9.58807 21.7972 9.99148C21.5927 10.3892 21.4876 10.8693 21.4819 11.4318ZM32.7809 19V5.90909H36.4116V19H32.7809ZM34.6048 4.22159C34.065 4.22159 33.6019 4.04261 33.2156 3.68466C32.8349 3.32102 32.6445 2.88636 32.6445 2.38068C32.6445 1.88068 32.8349 1.4517 33.2156 1.09375C33.6019 0.730113 34.065 0.548295 34.6048 0.548295C35.1445 0.548295 35.6048 0.730113 35.9854 1.09375C36.3718 1.4517 36.565 1.88068 36.565 2.38068C36.565 2.88636 36.3718 3.32102 35.9854 3.68466C35.6048 4.04261 35.1445 4.22159 34.6048 4.22159ZM45.2859 19.2557C43.9393 19.2557 42.7802 18.983 41.8086 18.4375C40.8427 17.8864 40.0984 17.108 39.5756 16.1023C39.0529 15.0909 38.7915 13.8949 38.7915 12.5142C38.7915 11.1676 39.0529 9.9858 39.5756 8.96875C40.0984 7.9517 40.8342 7.15909 41.783 6.59091C42.7376 6.02273 43.8569 5.73864 45.141 5.73864C46.0046 5.73864 46.8086 5.87784 47.5529 6.15625C48.3029 6.42898 48.9563 6.84091 49.5131 7.39205C50.0756 7.94318 50.5131 8.63636 50.8256 9.47159C51.1381 10.3011 51.2944 11.2727 51.2944 12.3864V13.3835H40.2404V11.1335H47.8768C47.8768 10.6108 47.7631 10.1477 47.5359 9.74432C47.3086 9.34091 46.9933 9.02557 46.5898 8.7983C46.1921 8.56534 45.729 8.44886 45.2006 8.44886C44.6495 8.44886 44.1609 8.5767 43.7347 8.83239C43.3143 9.08239 42.9847 9.42045 42.7461 9.84659C42.5075 10.267 42.3853 10.7358 42.3796 11.2528V13.392C42.3796 14.0398 42.4989 14.5994 42.7376 15.071C42.9819 15.5426 43.3256 15.9062 43.7688 16.1619C44.212 16.4176 44.7376 16.5455 45.3455 16.5455C45.7489 16.5455 46.1183 16.4886 46.4535 16.375C46.7887 16.2614 47.0756 16.0909 47.3143 15.8636C47.5529 15.6364 47.7347 15.358 47.8597 15.0284L51.2177 15.25C51.0472 16.0568 50.6978 16.7614 50.1694 17.3636C49.6467 17.9602 48.9705 18.4261 48.141 18.7614C47.3171 19.0909 46.3654 19.2557 45.2859 19.2557ZM65.5167 5.90909L60.94 19H56.8491L52.2724 5.90909H56.1076L58.8263 15.2756H58.9627L61.6729 5.90909H65.5167ZM72.9187 19.2557C71.5721 19.2557 70.413 18.983 69.4414 18.4375C68.4755 17.8864 67.7312 17.108 67.2085 16.1023C66.6857 15.0909 66.4244 13.8949 66.4244 12.5142C66.4244 11.1676 66.6857 9.9858 67.2085 8.96875C67.7312 7.9517 68.467 7.15909 69.4158 6.59091C70.3704 6.02273 71.4897 5.73864 72.7738 5.73864C73.6374 5.73864 74.4414 5.87784 75.1857 6.15625C75.9357 6.42898 76.5891 6.84091 77.146 7.39205C77.7085 7.94318 78.146 8.63636 78.4585 9.47159C78.771 10.3011 78.9272 11.2727 78.9272 12.3864V13.3835H67.8732V11.1335H75.5096C75.5096 10.6108 75.396 10.1477 75.1687 9.74432C74.9414 9.34091 74.6261 9.02557 74.2227 8.7983C73.8249 8.56534 73.3619 8.44886 72.8335 8.44886C72.2823 8.44886 71.7937 8.5767 71.3675 8.83239C70.9471 9.08239 70.6175 9.42045 70.3789 9.84659C70.1403 10.267 70.0181 10.7358 70.0124 11.2528V13.392C70.0124 14.0398 70.1317 14.5994 70.3704 15.071C70.6147 15.5426 70.9585 15.9062 71.4016 16.1619C71.8448 16.4176 72.3704 16.5455 72.9783 16.5455C73.3817 16.5455 73.7511 16.4886 74.0863 16.375C74.4215 16.2614 74.7085 16.0909 74.9471 15.8636C75.1857 15.6364 75.3675 15.358 75.4925 15.0284L78.8505 15.25C78.68 16.0568 78.3306 16.7614 77.8022 17.3636C77.2795 17.9602 76.6033 18.4261 75.7738 18.7614C74.9499 19.0909 73.9982 19.2557 72.9187 19.2557ZM84.9272 11.4318V19H81.2965V5.90909H84.7567V8.21875H84.9102C85.1999 7.45739 85.6857 6.85511 86.3675 6.41193C87.0494 5.96307 87.8761 5.73864 88.8477 5.73864C89.7567 5.73864 90.5494 5.9375 91.2255 6.33523C91.9016 6.73295 92.4272 7.30114 92.8022 8.03977C93.1772 8.77273 93.3647 9.64773 93.3647 10.6648V19H89.734V11.3125C89.7397 10.5114 89.5352 9.88636 89.1204 9.4375C88.7056 8.98295 88.1346 8.75568 87.4073 8.75568C86.9187 8.75568 86.4869 8.8608 86.1119 9.07102C85.7425 9.28125 85.4528 9.58807 85.2425 9.99148C85.038 10.3892 84.9329 10.8693 84.9272 11.4318ZM103.189 5.90909V8.63636H95.3058V5.90909H103.189ZM97.0955 2.77273H100.726V14.9773C100.726 15.3125 100.777 15.5739 100.88 15.7614C100.982 15.9432 101.124 16.071 101.306 16.1449C101.493 16.2187 101.709 16.2557 101.953 16.2557C102.124 16.2557 102.294 16.2415 102.465 16.2131C102.635 16.179 102.766 16.1534 102.857 16.1364L103.428 18.8381C103.246 18.8949 102.99 18.9602 102.661 19.0341C102.331 19.1136 101.931 19.1619 101.459 19.179C100.584 19.2131 99.8171 19.0966 99.158 18.8295C98.5046 18.5625 97.9961 18.1477 97.6325 17.5852C97.2688 17.0227 97.0898 16.3125 97.0955 15.4545V2.77273Z" fill="#181919"/>
</svg>
